<?xml version="1.0" encoding="UTF-8" standalone="no"?>
<svg width="91px" height="114px" viewBox="0 0 91 114" version="1.1" xmlns="http://www.w3.org/2000/svg" xmlns:xlink="http://www.w3.org/1999/xlink">
  <defs>
    <filter x="-8.4%" y="-5.7%" width="117.8%" height="114.2%" filterUnits="objectBoundingBox" id="filter-1">
      <feOffset dx="0" dy="2" in="SourceAlpha" result="shadowOffsetOuter1"></feOffset>
      <feGaussianBlur stdDeviation="2" in="shadowOffsetOuter1" result="shadowBlurOuter1"></feGaussianBlur>
      <feColorMatrix values="0 0 0 0 0.164705882   0 0 0 0 0.270588235   0 0 0 0 0.282352941  0 0 0 0.5 0" type="matrix" in="shadowBlurOuter1" result="shadowMatrixOuter1"></feColorMatrix>
      <feMerge>
          <feMergeNode in="shadowMatrixOuter1"></feMergeNode>
          <feMergeNode in="SourceGraphic"></feMergeNode>
      </feMerge>
    </filter>
  </defs>
  <g id="Juego" stroke="none" stroke-width="1" fill="none" fill-rule="evenodd">
    <g id="ghost" filter="url(#filter-1)" transform="translate(4.000000, 2.000000)" fill-rule="nonzero">
      <path d="M30.2507852,104.989273 L41.6132812,92.0164883 L52.9757773,104.989273 C54.3233437,106.33684 56.5081445,106.33684 57.8557109,104.989273 L69.2184141,92.0164883 L77.1303203,101.538684 C79.3039414,103.712305 83.0209805,102.17282 83.0209805,99.0986133 L83.0209805,41.7621367 C83.0207734,18.9458437 64.3535937,-0.0407851562 41.5373008,2.71050543e-20 C18.7034102,0.0409921875 0.205789063,18.5638711 0.205789063,41.4074922 L0.205789063,99.0988203 C0.205789063,102.173027 3.92262109,103.712512 6.09644922,101.538891 L14.0083555,92.0164883 L25.3708516,104.989273 C26.718625,106.33684 28.9032187,106.33684 30.2507852,104.989273 Z" id="Shape" fill="#E0E0E2"></path>
      <path d="M57.8557109,104.989273 L69.218207,92.0164883 L77.1301133,101.538684 C79.3037344,103.712305 83.0207734,102.17282 83.0207734,99.0986133 L83.0207734,41.4074922 C83.0207734,18.5386133 64.4821602,0 41.6132812,0 L41.6132812,92.0164883 L52.9757773,104.989273 C54.3235508,106.33684 56.5081445,106.33684 57.8557109,104.989273 Z" id="Shape" fill="#C6C5CA"></path>
      <g id="Group" transform="translate(13.871094, 34.367188)" fill="#5D5D5D">
          <path d="M44.9953437,0.139125 C50.7038164,0.139125 55.3471133,4.78283594 55.3471133,10.4908945 C55.3471133,16.1989531 50.7038164,20.8426641 44.9953437,20.8426641 C39.2870781,20.8426641 34.6435742,16.1989531 34.6435742,10.4908945 C34.6435742,4.78283594 39.2870781,0.139125 44.9953437,0.139125 Z" id="Shape"></path>
          <path d="M10.4890312,0.139125 C16.1972969,0.139125 20.8408008,4.78283594 20.8408008,10.4908945 C20.8408008,16.1989531 16.1970898,20.8426641 10.4890312,20.8426641 C4.78055859,20.8426641 0.137261719,16.1989531 0.137261719,10.4908945 C0.137261719,4.78283594 4.78076563,0.139125 10.4890312,0.139125 Z" id="Shape"></path>
      </g>
    </g>
  </g>
</svg>
