<?xml version="1.0" encoding="UTF-8" standalone="no"?>
<svg width="114px" height="114px" viewBox="0 0 114 114" version="1.1" xmlns="http://www.w3.org/2000/svg" xmlns:xlink="http://www.w3.org/1999/xlink">
  <defs>
    <filter x="-6.6%" y="-4.7%" width="113.2%" height="113.2%" filterUnits="objectBoundingBox" id="filter-1">
      <feOffset dx="0" dy="2" in="SourceAlpha" result="shadowOffsetOuter1"></feOffset>
      <feGaussianBlur stdDeviation="2" in="shadowOffsetOuter1" result="shadowBlurOuter1"></feGaussianBlur>
      <feColorMatrix values="0 0 0 0 0.164705882   0 0 0 0 0.270588235   0 0 0 0 0.282352941  0 0 0 1 0" type="matrix" in="shadowBlurOuter1" result="shadowMatrixOuter1"></feColorMatrix>
      <feMerge>
          <feMergeNode in="shadowMatrixOuter1"></feMergeNode>
          <feMergeNode in="SourceGraphic"></feMergeNode>
      </feMerge>
    </filter>
  </defs>
  <g id="Juego" stroke="none" stroke-width="1" fill="none" fill-rule="evenodd">
      <g id="monster" filter="url(#filter-1)" transform="translate(4.000000, 2.000000)" fill-rule="nonzero">
          <g id="Group" transform="translate(12.421875, 12.421875)" fill="#5EAC24">
              <polygon id="Shape" points="0.0884023437 4.97599609 10.4821992 15.369793 15.37 10.4819922 4.97599609 0.0884023438"></polygon>
              <polygon id="Shape" points="76.1802539 0.0884023438 65.786457 10.4821992 70.6742578 15.37 81.0678477 4.97599609"></polygon>
          </g>
          <path d="M53,106 C23.7760898,106 0,85.3248242 0,59.9129805 C0,34.5011367 23.7760898,13.826168 53,13.826168 C82.2239102,13.826168 106,34.5011367 106,59.9131875 C106,85.3252383 82.2239102,106 53,106 Z" id="Shape" fill="#91DC5A"></path>
          <path d="M106,59.9129805 C106,34.5011367 82.2239102,13.8259609 53,13.8259609 L53,106 C82.2239102,106 106,85.3248242 106,59.9129805 Z" id="Shape" fill="#6DC82A"></path>
          <path d="M53,27.6521289 C39.0231133,27.6521289 27.6521289,39.0251836 27.6521289,53 C27.6521289,66.9748164 39.0231133,78.3478711 53,78.3478711 C66.9768867,78.3478711 78.3478711,66.9746094 78.3478711,53 C78.3478711,39.0253906 66.9768867,27.6521289 53,27.6521289 Z" id="Shape" fill="#DCF4CA"></path>
          <path d="M78.3478711,53 C78.3478711,39.0251836 66.9768867,27.6521289 53,27.6521289 L53,78.3478711 C66.9768867,78.3478711 78.3478711,66.9746094 78.3478711,53 Z" id="Shape" fill="#B6E892"></path>
          <circle id="Oval" fill="#806749" cx="53" cy="53" r="11.5217031"></circle>
          <path d="M64.5217031,53 C64.5217031,46.6366875 59.3631055,41.4782969 53,41.4782969 L53,64.5217031 C59.3633125,64.5217031 64.5217031,59.3633125 64.5217031,53 Z" id="Shape" fill="#5F4D37"></path>
          <path d="M56.4565938,53 C54.55025,53 53,51.4489219 53,49.5434063 C53,47.6378906 54.550043,46.0868125 56.4565938,46.0868125 C58.3629375,46.0868125 59.9131875,47.6378906 59.9131875,49.5434063 C59.9131875,51.4489219 58.3629375,53 56.4565938,53 Z" id="Shape" fill="#FFFFFF"></path>
          <path d="M66.826168,92.173832 L41.4782969,92.173832 C39.5688477,92.173832 38.0217031,90.6266875 38.0217031,88.7172383 C38.0217031,86.8077891 39.5688477,85.2606445 41.4782969,85.2606445 L66.826168,85.2606445 C68.7356172,85.2606445 70.2827617,86.8077891 70.2827617,88.7172383 C70.2827617,90.6266875 68.7354102,92.173832 66.826168,92.173832 Z" id="Shape" fill="#5F4D37"></path>
          <circle id="Oval" fill="#91DC5A" cx="10.3695742" cy="10.3695742" r="10.3695742"></circle>
          <path d="M20.7391484,10.3695742 C20.7391484,4.64246875 16.0964727,0 10.3695742,0 L10.3695742,20.7391484 C16.0964727,20.7391484 20.7391484,16.0964727 20.7391484,10.3695742 Z" id="Shape" fill="#6DC82A"></path>
          <circle id="Oval" fill="#91DC5A" cx="95.6304258" cy="10.3695742" r="10.3695742"></circle>
          <path d="M106,10.3695742 C106,4.64246875 101.357531,0 95.6304258,0 L95.6304258,20.7391484 C101.357531,20.7391484 106,16.0964727 106,10.3695742 Z" id="Shape" fill="#6DC82A"></path>
      </g>
  </g>
</svg>
